<?xml version="1.0" encoding="UTF-8" standalone="no"?>
<!DOCTYPE svg PUBLIC "-//W3C//DTD SVG 1.1//EN" "http://www.w3.org/Graphics/SVG/1.1/DTD/svg11.dtd">
<svg width="100%" height="100%" viewBox="0 0 100 100" version="1.1" xmlns="http://www.w3.org/2000/svg" xmlns:xlink="http://www.w3.org/1999/xlink" xml:space="preserve" xmlns:serif="http://www.serif.com/" style="fill-rule:evenodd;clip-rule:evenodd;stroke-linejoin:round;stroke-miterlimit:2;">
    <g transform="matrix(1,0,0,1,-79.9636,-0.336823)">
        <g id="custom-widgets" transform="matrix(0.588543,0,0,0.689575,-130.503,0.336823)">
            <rect x="357.607" y="0" width="169.911" height="145.017" style="fill:none;"/>
            <g transform="matrix(0.494214,-1.96985e-17,2.38895e-17,0.407512,300.319,-51.585)">
                <path d="M376.11,306.908L329.081,306.908L329.081,338.144L367.396,328.541L372.954,317.401L384.524,313.503L391.302,321.809L385.546,329.618L400.605,336.731L399.939,345.163L376.299,340.618L329.081,345.485L329.081,362.97L345.849,366.925L367.464,368.341L388.582,365.677L389.268,374.107L375.598,382.216L382.03,384.521L377.933,398.197L361.29,395.259L358.591,380.439L329.081,370.541L329.081,384.877L231.929,384.877L231.929,365.053L201.786,375.246L199.123,390.072L182.488,393.051L178.357,379.385L184.784,377.064L171.093,368.99L171.759,360.557L192.884,363.169L214.495,361.701L231.929,357.543L231.929,347.413L214.396,344.065L192.74,343.581L171.756,347.151L170.708,338.758L184.017,330.069L177.491,328.042L180.996,314.203L197.75,316.422L201.084,331.112L231.929,340.001L231.929,306.908L184.281,306.908L184.281,209.136L376.11,209.136L376.11,306.908ZM319.964,332.662L243.227,331.732L254.403,352.07L307.368,350.707L319.964,332.662ZM289.24,308.764L282.124,296.388L275.008,308.764L289.24,308.764ZM248.636,241.933C261.956,241.933 272.77,252.747 272.77,266.067C272.77,279.386 261.956,290.2 248.636,290.2C235.317,290.2 224.503,279.386 224.503,266.067C224.503,252.747 235.317,241.933 248.636,241.933ZM311.445,256.784C320.496,256.784 327.844,264.132 327.844,273.183C327.844,282.233 320.496,289.581 311.445,289.581C302.395,289.581 295.047,282.233 295.047,273.183C295.047,264.132 302.395,256.784 311.445,256.784Z" style="fill:white;"/>
            </g>
            <g id="cogs.svg" transform="matrix(0.0783439,-2.95064e-17,3.46963e-17,0.0668655,452.304,71.711)">
                <path d="M512.1,191L503.9,205.3C500.9,210.6 494.5,212.8 488.8,210.7C477,206.3 466.2,200 456.7,192.1C452.1,188.3 450.9,181.6 453.9,176.4L462.1,162.1C455.2,154.1 449.8,144.8 446.2,134.7L429.7,134.7C423.7,134.7 418.5,130.4 417.5,124.4C415.5,112.4 415.4,99.8 417.5,87.3C418.5,81.3 423.7,76.9 429.7,76.9L446.2,76.9C449.8,66.8 455.2,57.5 462.1,49.5L453.9,35.2C450.9,30 452,23.3 456.7,19.5C466.2,11.6 477.1,5.3 488.8,0.9C494.5,-1.2 500.9,1 503.9,6.3L512.1,20.6C522.6,18.7 533.3,18.7 543.8,20.6L552,6.3C555,1 561.4,-1.2 567.1,0.9C578.9,5.3 589.7,11.6 599.2,19.5C603.8,23.3 605,30 602,35.2L593.8,49.5C600.7,57.5 606.1,66.8 609.7,76.9L626.2,76.9C632.2,76.9 637.4,81.2 638.4,87.2C640.4,99.2 640.5,111.8 638.4,124.3C637.4,130.3 632.2,134.7 626.2,134.7L609.7,134.7C606.1,144.8 600.7,154.1 593.8,162.1L602,176.4C605,181.6 603.9,188.3 599.2,192.1C589.7,200 578.8,206.3 567.1,210.7C561.4,212.8 555,210.6 552,205.3L543.8,191C533.4,192.9 522.6,192.9 512.1,191ZM501.6,132.2C540.1,161.8 584,117.9 554.4,79.4C515.9,49.7 472,93.7 501.6,132.2ZM386.3,286.1L420,302.9C430.1,308.7 434.5,321 430.5,332C421.6,356.2 404.1,378.4 387.9,397.8C380.5,406.7 367.7,408.9 357.6,403.1L328.5,386.3C312.5,400 293.9,410.9 273.6,418L273.6,451.6C273.6,463.2 265.3,473.2 253.9,475.2C229.3,479.4 203.5,479.6 178,475.2C166.5,473.2 158,463.3 158,451.6L158,418C137.7,410.8 119.1,400 103.1,386.3L74,403C64,408.8 51.1,406.6 43.7,397.7C27.5,378.3 10.4,356.1 1.5,332C-2.5,321.1 1.9,308.8 12,302.9L45.3,286.1C41.4,265.2 41.4,243.7 45.3,222.7L12,205.8C1.9,200 -2.6,187.7 1.5,176.8C10.4,152.6 27.5,130.4 43.7,111C51.1,102.1 63.9,99.9 74,105.7L103.1,122.5C119.1,108.8 137.7,97.9 158,90.8L158,57.1C158,45.6 166.2,35.6 177.6,33.6C202.2,29.4 228.1,29.2 253.6,33.5C265.1,35.5 273.6,45.4 273.6,57.1L273.6,90.7C293.9,97.9 312.5,108.7 328.5,122.4L357.6,105.6C367.6,99.8 380.5,102 387.9,110.9C404.1,130.3 421.1,152.5 430,176.7C434,187.6 430.1,199.9 420,205.8L386.3,222.6C390.2,243.6 390.2,265.1 386.3,286.1ZM268.7,307.2C327.9,230.2 240,142.3 163,201.5C103.8,278.5 191.7,366.4 268.7,307.2ZM512.1,489.9L503.9,504.2C500.9,509.5 494.5,511.7 488.8,509.6C477,505.2 466.2,498.9 456.7,491C452.1,487.2 450.9,480.5 453.9,475.3L462.1,461C455.2,453 449.8,443.7 446.2,433.6L429.7,433.6C423.7,433.6 418.5,429.3 417.5,423.3C415.5,411.3 415.4,398.7 417.5,386.2C418.5,380.2 423.7,375.8 429.7,375.8L446.2,375.8C449.8,365.7 455.2,356.4 462.1,348.4L453.9,334.1C450.9,328.9 452,322.2 456.7,318.4C466.2,310.5 477.1,304.2 488.8,299.8C494.5,297.7 500.9,299.9 503.9,305.2L512.1,319.5C522.6,317.6 533.3,317.6 543.8,319.5L552,305.2C555,299.9 561.4,297.7 567.1,299.8C578.9,304.2 589.7,310.5 599.2,318.4C603.8,322.2 605,328.9 602,334.1L593.8,348.4C600.7,356.4 606.1,365.7 609.7,375.8L626.2,375.8C632.2,375.8 637.4,380.1 638.4,386.1C640.4,398.1 640.5,410.7 638.4,423.2C637.4,429.2 632.2,433.6 626.2,433.6L609.7,433.6C606.1,443.7 600.7,453 593.8,461L602,475.3C605,480.5 603.9,487.2 599.2,491C589.7,498.9 578.8,505.2 567.1,509.6C561.4,511.7 555,509.5 552,504.2L543.8,489.9C533.4,491.8 522.6,491.8 512.1,489.9ZM501.6,431C540.1,460.6 584,416.7 554.4,378.2C515.9,348.6 472,392.5 501.6,431Z" style="fill:rgb(236,236,236);fill-rule:nonzero;stroke:rgb(203,203,203);stroke-width:21.69px;"/>
            </g>
        </g>
    </g>
</svg>
