<?xml version="1.0" encoding="UTF-8" standalone="no"?>
<!DOCTYPE svg PUBLIC "-//W3C//DTD SVG 1.1//EN" "http://www.w3.org/Graphics/SVG/1.1/DTD/svg11.dtd">
<svg width="100%" height="100%" viewBox="0 0 100 100" version="1.1" xmlns="http://www.w3.org/2000/svg" xmlns:xlink="http://www.w3.org/1999/xlink" xml:space="preserve" xmlns:serif="http://www.serif.com/" style="fill-rule:evenodd;clip-rule:evenodd;stroke-linejoin:round;stroke-miterlimit:2;">
    <g transform="matrix(1,0,0,1,-184.73,-0.336823)">
        <g id="watch-party" transform="matrix(0.588543,0,0,0.689575,-25.7366,0.336823)">
            <rect x="357.607" y="0" width="169.911" height="145.017" style="fill:none;"/>
            <g transform="matrix(1.08678,0,0,1.08678,-24.5801,-1.74943)">
                <g transform="matrix(0.45475,-1.81255e-17,2.19819e-17,0.374972,298.956,-45.8561)">
                    <path d="M376.11,306.908L329.081,306.908L329.081,338.144L367.396,328.541L372.954,317.401L384.524,313.503L391.302,321.809L385.546,329.618L400.605,336.731L399.939,345.163L376.299,340.618L329.081,345.485L329.081,362.97L345.849,366.925L367.464,368.341L388.582,365.677L389.268,374.107L375.598,382.216L382.03,384.521L377.933,398.197L361.29,395.259L358.591,380.439L329.081,370.541L329.081,384.877L231.929,384.877L231.929,365.053L201.786,375.246L199.123,390.072L182.488,393.051L178.357,379.385L184.784,377.064L171.093,368.99L171.759,360.557L192.884,363.169L214.495,361.701L231.929,357.543L231.929,347.413L214.396,344.065L192.74,343.581L171.756,347.151L170.708,338.758L184.017,330.069L177.491,328.042L180.996,314.203L197.75,316.422L201.084,331.112L231.929,340.001L231.929,306.908L184.281,306.908L184.281,209.136L376.11,209.136L376.11,306.908ZM319.964,332.662L243.227,331.732L254.403,352.07L307.368,350.707L319.964,332.662ZM289.24,308.764L282.124,296.388L275.008,308.764L289.24,308.764ZM248.636,241.933C261.956,241.933 272.77,252.747 272.77,266.067C272.77,279.386 261.956,290.2 248.636,290.2C235.317,290.2 224.503,279.386 224.503,266.067C224.503,252.747 235.317,241.933 248.636,241.933ZM311.445,256.784C320.496,256.784 327.844,264.132 327.844,273.183C327.844,282.233 320.496,289.581 311.445,289.581C302.395,289.581 295.047,282.233 295.047,273.183C295.047,264.132 302.395,256.784 311.445,256.784Z" style="fill:white;"/>
                </g>
                <g transform="matrix(0.235534,0,0,0.201025,438.011,68.2855)">
                    <g transform="matrix(2.16209,0,0,2.16209,-5641.14,-3375.5)">
                        <path d="M2621.27,1585.39C2620.61,1580.71 2622.44,1577.95 2625.4,1576.06L2629.28,1569.9C2633.85,1569.55 2637.94,1568.26 2641.36,1565.61C2646.26,1567.15 2650.51,1566.59 2654.09,1563.86C2658.17,1566.73 2662.17,1567.18 2666.1,1565.61L2677.66,1569.65L2687.19,1581.18L2685.77,1587.27L2620.54,1587.27L2621.27,1585.39Z" style="fill:white;"/>
                    </g>
                    <g transform="matrix(0.367045,0,0,0.367045,3.27761,2.35221)">
                        <path d="M425.17,73.146C425.349,71.569 425.438,69.977 425.438,68.375C425.438,45.125 406.523,26.21 383.273,26.21C376.424,26.21 369.829,27.829 363.919,30.888C354.388,16.131 337.865,6.832 319.734,6.832C308.32,6.832 297.49,10.452 288.571,17.046C280.754,6.589 268.271,0 254.743,0C241.736,0 229.646,6.068 221.768,15.906C213.14,10.05 202.869,6.831 192.253,6.831C174.127,6.831 157.607,16.133 148.077,30.891C142.164,27.831 135.569,26.209 128.726,26.209C105.476,26.209 86.56,45.124 86.56,68.374C86.56,69.977 86.648,71.569 86.826,73.143C65.168,79.785 49.917,99.748 49.917,123.372C49.917,133.641 52.901,143.561 58.429,152.04C59.262,153.318 60.154,154.564 61.101,155.773L450.89,155.772C458.128,146.547 462.084,135.194 462.084,123.372C462.083,99.751 446.832,79.789 425.17,73.146ZM436.463,142.582L75.531,142.582C71.545,136.994 69.36,130.316 69.36,123.372C69.36,108.142 79.412,95.331 93.552,91.449C98.688,98.796 107.884,106.538 121.405,106.538C122.817,106.538 124.275,106.454 125.781,106.276C130.867,105.675 134.95,101.445 134.804,96.325C134.635,90.457 129.468,86.174 123.799,86.929C112.891,88.387 108.536,79.101 107.761,77.182C107.748,77.15 107.732,77.12 107.719,77.087C107.707,77.06 107.702,77.03 107.69,77.003C106.911,75.103 106.4,73.118 106.16,71.078C104.665,58.325 114.311,46.581 127.121,45.705C133.741,45.253 140.051,47.613 144.727,52.238C146.546,54.037 148.976,55.167 151.533,55.205C155.855,55.269 159.568,52.553 160.912,48.641C165.51,35.262 178.104,26.272 192.25,26.272C201.682,26.272 210.683,30.307 216.956,37.347C218.685,39.287 221.128,40.524 223.725,40.661C228.098,40.892 231.948,38.249 233.4,34.319C236.685,25.422 245.262,19.443 254.741,19.443C264.689,19.443 273.589,26.054 276.484,35.556C277.328,38.325 279.172,40.743 281.806,41.944C286.043,43.873 290.851,42.586 293.572,39.092C299.916,30.947 309.452,26.275 319.735,26.275C332.255,26.275 343.546,33.315 349.172,44.196C347.382,47.036 345.404,50.877 344.135,55.481C340.471,68.783 344.477,82.132 355.415,93.071C357.313,94.97 359.801,95.919 362.289,95.919C364.734,95.919 367.178,95.003 369.064,93.17C372.972,89.372 372.643,82.894 368.837,78.992C363.214,73.228 361.219,67.399 362.74,61.182C362.905,60.509 363.102,59.861 363.322,59.243C365.181,54.008 369.169,49.707 374.267,47.502C377.793,45.978 381.706,45.361 385.72,45.778C397.158,46.967 406.012,56.905 405.997,68.403C405.993,71.352 405.428,74.232 404.315,76.962C403.443,79.101 403.33,81.519 404.055,83.713C405.302,87.486 408.636,90.038 412.448,90.373C429.38,91.857 442.643,106.351 442.643,123.373C442.642,130.32 440.454,136.998 436.463,142.582ZM261.257,62.341C253.773,62.341 246.619,64.337 240.382,68.082C233.93,62.337 225.496,59.009 216.68,59.009C197.024,59.009 181.034,74.999 181.034,94.655C181.034,114.311 197.023,130.301 216.678,130.301C222.047,130.301 226.399,125.948 226.399,120.58C226.399,115.211 222.046,110.859 216.678,110.859C207.743,110.859 200.475,103.591 200.475,94.656C200.475,85.721 207.743,78.453 216.678,78.453C222.451,78.453 227.665,81.443 230.623,86.452C232.165,89.064 234.84,90.806 237.852,91.162C240.867,91.52 243.872,90.448 245.98,88.269C250.027,84.087 255.453,81.785 261.257,81.785C272.982,81.785 282.521,91.324 282.521,103.051C282.521,108.42 286.872,112.773 292.242,112.773C297.612,112.773 301.963,108.42 301.963,103.051C301.965,80.603 283.704,62.341 261.257,62.341Z" style="fill:rgb(203,203,203);fill-rule:nonzero;"/>
                    </g>
                    <g transform="matrix(2.16209,0,0,2.16209,-5641.14,-3375.5)">
                        <path d="M2622.4,1588.75L2685.77,1588.75L2677.66,1647.58L2630.51,1647.39L2622.4,1588.75Z" style="fill:white;"/>
                    </g>
                    <g transform="matrix(0.367045,0,0,0.367045,3.27761,2.35221)">
                        <path d="M450.89,155.772C458.128,146.547 52.901,143.561 58.429,152.04C59.262,153.318 60.154,154.564 61.101,155.773L104.105,503.472C104.708,508.343 108.845,512 113.753,512L398.238,512C403.145,512 407.284,508.342 407.886,503.472L450.89,155.772ZM122.346,492.557L81.465,162.025L126.229,162.025L152.847,492.557L122.346,492.557ZM172.353,492.557L145.735,162.025L201.2,162.025L204.361,266.623C187.193,281.257 176.275,303.016 176.275,327.29C176.275,353.297 188.796,376.432 208.124,390.993L211.189,492.556L172.353,492.556L172.353,492.557ZM281.346,492.557L230.642,492.557L227.906,401.886C236.649,405.189 246.111,407.011 255.996,407.011C265.883,407.011 275.348,405.188 284.092,401.883L281.346,492.557ZM300.797,492.557L303.873,390.989C323.198,376.427 335.717,353.295 335.717,327.291C335.717,303.021 324.802,281.264 307.639,266.63L310.799,162.025L366.256,162.025L339.638,492.557L300.797,492.557ZM389.644,492.557L359.143,492.557L385.761,162.025L430.527,162.025L389.644,492.557ZM255.996,387.568C222.759,387.568 195.719,360.528 195.719,327.291C195.719,294.054 222.759,267.014 255.996,267.014C289.233,267.014 316.273,294.054 316.273,327.291C316.273,360.528 289.233,387.568 255.996,387.568ZM220.653,162.025L291.349,162.025L288.552,254.548C278.602,250.079 267.59,247.571 255.997,247.571C244.406,247.571 233.395,250.078 223.449,254.546L220.653,162.025Z" style="fill:rgb(203,203,203);fill-rule:nonzero;"/>
                    </g>
                </g>
            </g>
        </g>
    </g>
</svg>
